<svg xmlns="http://www.w3.org/2000/svg" viewBox="0 0 512 512" width="512" height="512"><g transform="translate(85.333,85.333) scale(0.66667)"><path d="M161.46,149.80 L157.73,149.14 L153.95,148.85 L150.16,148.95 L146.40,149.42 L142.71,150.26 L139.12,151.47 L135.66,153.03 L132.38,154.92 L129.31,157.13 L126.47,159.64 L123.89,162.42 L121.60,165.44 L119.63,168.67 L117.98,172.08 L116.69,175.64 L115.75,179.31 L115.19,183.06 L115.00,186.84 L115.00,301.16 L115.19,304.94 L115.75,308.69 L116.69,312.36 L117.98,315.92 L119.63,319.33 L121.60,322.56 L123.89,325.58 L126.47,328.36 L129.31,330.87 L132.38,333.08 L135.66,334.97 L139.12,336.53 L142.71,337.74 L146.40,338.58 L150.16,339.05 L153.95,339.15 L157.73,338.86 L161.46,338.20 L165.10,337.18 L167.43,336.26 L165.09,333.75 L164.32,332.83 L162.04,329.81 L161.36,328.82 L159.39,325.59 L158.82,324.54 L157.17,321.12 L156.71,320.02 L155.41,316.46 L155.06,315.32 L154.12,311.65 L153.89,310.48 L153.32,306.73 L153.20,305.54 L153.01,301.76 L153.00,301.16 L153.00,186.84 L153.01,186.24 L153.20,182.46 L153.32,181.27 L153.89,177.52 L154.12,176.35 L155.06,172.68 L155.41,171.54 L156.71,167.98 L157.17,166.88 L158.82,163.46 L159.39,162.41 L161.36,159.18 L162.04,158.19 L164.32,155.17 L165.09,154.25 L167.43,151.74 L165.10,150.82Z M207.73,149.14 L203.95,148.85 L200.16,148.95 L196.40,149.42 L192.71,150.26 L189.12,151.47 L185.66,153.03 L182.38,154.92 L179.31,157.13 L176.47,159.64 L173.89,162.42 L171.60,165.44 L169.63,168.67 L167.98,172.08 L166.69,175.64 L165.75,179.31 L165.19,183.06 L165.00,186.84 L165.00,301.16 L165.19,304.94 L165.75,308.69 L166.69,312.36 L167.98,315.92 L169.63,319.33 L171.60,322.56 L173.89,325.58 L176.47,328.36 L179.31,330.87 L182.38,333.08 L185.66,334.97 L189.12,336.53 L192.71,337.74 L196.40,338.58 L200.16,339.05 L203.95,339.15 L207.73,338.86 L211.46,338.20 L215.10,337.18 L217.43,336.26 L215.09,333.75 L214.32,332.83 L212.04,329.81 L211.36,328.82 L209.39,325.59 L208.82,324.54 L207.17,321.12 L206.71,320.02 L205.41,316.46 L205.06,315.32 L204.12,311.65 L203.89,310.48 L203.32,306.73 L203.20,305.54 L203.01,301.76 L203.00,301.16 L203.00,186.84 L203.01,186.24 L203.20,182.46 L203.32,181.27 L203.89,177.52 L204.12,176.35 L205.06,172.68 L205.41,171.54 L206.71,167.98 L207.17,166.88 L208.82,163.46 L209.39,162.41 L211.36,159.18 L212.04,158.19 L214.32,155.17 L215.09,154.25 L217.43,151.74 L215.10,150.82 L211.46,149.80Z M377.14,272.49 L379.86,269.85 L382.29,266.94 L384.43,263.81 L386.24,260.49 L387.71,257.00 L388.82,253.38 L389.58,249.66 L389.95,245.89 L389.95,242.11 L389.58,238.34 L388.82,234.62 L387.71,231.00 L386.24,227.51 L384.43,224.19 L382.29,221.06 L379.86,218.15 L377.14,215.51 L374.18,213.15 L371.00,211.09 L272.00,153.93 L268.63,152.21 L265.10,150.82 L261.46,149.80 L257.73,149.14 L253.95,148.85 L250.16,148.95 L246.40,149.42 L242.71,150.26 L239.12,151.47 L235.66,153.03 L232.38,154.92 L229.31,157.13 L226.47,159.64 L223.89,162.42 L221.60,165.44 L219.63,168.67 L217.98,172.08 L216.69,175.64 L215.75,179.31 L215.19,183.06 L215.00,186.84 L215.00,301.16 L215.19,304.94 L215.75,308.69 L216.69,312.36 L217.98,315.92 L219.63,319.33 L221.60,322.56 L223.89,325.58 L226.47,328.36 L229.31,330.87 L232.38,333.08 L235.66,334.97 L239.12,336.53 L242.71,337.74 L246.40,338.58 L250.16,339.05 L253.95,339.15 L257.73,338.86 L261.46,338.20 L265.10,337.18 L268.63,335.79 L272.00,334.07 L371.00,276.91 L374.18,274.85Z" fill="#FFFFFF" fill-rule="nonzero"/></g></svg>