<svg xmlns="http://www.w3.org/2000/svg" viewBox="0 0 512 512" width="512" height="512"><defs><linearGradient id="c3i-g1" gradientUnits="userSpaceOnUse" x1="107.69" y1="178.28" x2="120.31" y2="198.51"><stop offset="0.000" stop-color="#251501"/><stop offset="1.000" stop-color="#190E00"/></linearGradient><linearGradient id="c3i-g2" gradientUnits="userSpaceOnUse" x1="310.90" y1="178.28" x2="306.35" y2="198.51"><stop offset="0.000" stop-color="#251501"/><stop offset="1.000" stop-color="#190E00"/></linearGradient><linearGradient id="c3i-g3" gradientUnits="userSpaceOnUse" x1="403.79" y1="178.28" x2="391.40" y2="198.51"><stop offset="0.000" stop-color="#251501"/><stop offset="1.000" stop-color="#190E00"/></linearGradient><linearGradient id="c3i-g4" gradientUnits="userSpaceOnUse" x1="121.80" y1="180.76" x2="133.25" y2="200.82"><stop offset="0.000" stop-color="#251501"/><stop offset="1.000" stop-color="#190E00"/></linearGradient><linearGradient id="c3i-g5" gradientUnits="userSpaceOnUse" x1="392.36" y1="180.76" x2="380.91" y2="200.82"><stop offset="0.000" stop-color="#251501"/><stop offset="1.000" stop-color="#190E00"/></linearGradient><linearGradient id="c3i-g6" gradientUnits="userSpaceOnUse" x1="415.65" y1="180.76" x2="402.24" y2="200.82"><stop offset="0.000" stop-color="#251501"/><stop offset="1.000" stop-color="#190E00"/></linearGradient><linearGradient id="c3i-g7" gradientUnits="userSpaceOnUse" x1="95.43" y1="184.92" x2="109.14" y2="204.67"><stop offset="0.000" stop-color="#251501"/><stop offset="1.000" stop-color="#190E00"/></linearGradient><linearGradient id="c3i-g8" gradientUnits="userSpaceOnUse" x1="80.38" y1="191.61" x2="95.41" y2="210.86"><stop offset="0.000" stop-color="#251501"/><stop offset="1.000" stop-color="#190E00"/></linearGradient><linearGradient id="c3i-g9" gradientUnits="userSpaceOnUse" x1="190.17" y1="196.62" x2="195.88" y2="215.49"><stop offset="0.000" stop-color="#251501"/><stop offset="1.000" stop-color="#190E00"/></linearGradient><linearGradient id="c3i-g10" gradientUnits="userSpaceOnUse" x1="151.68" y1="205.10" x2="160.72" y2="223.33"><stop offset="0.000" stop-color="#251501"/><stop offset="1.000" stop-color="#190E00"/></linearGradient><linearGradient id="c3i-g11" gradientUnits="userSpaceOnUse" x1="238.53" y1="241.75" x2="240.15" y2="257.13"><stop offset="0.000" stop-color="#251501"/><stop offset="1.000" stop-color="#190E00"/></linearGradient><linearGradient id="c3i-g12" gradientUnits="userSpaceOnUse" x1="364.71" y1="241.75" x2="355.30" y2="257.13"><stop offset="0.000" stop-color="#5F3B07"/><stop offset="1.000" stop-color="#271702"/></linearGradient><linearGradient id="c3i-g13" gradientUnits="userSpaceOnUse" x1="424.09" y1="241.75" x2="409.50" y2="257.13"><stop offset="0.000" stop-color="#5F3B07"/><stop offset="1.000" stop-color="#271702"/></linearGradient><linearGradient id="c3i-g14" gradientUnits="userSpaceOnUse" x1="301.93" y1="254.30" x2="297.99" y2="268.67"><stop offset="0.000" stop-color="#251501"/><stop offset="1.000" stop-color="#190E00"/></linearGradient><linearGradient id="c3i-g15" gradientUnits="userSpaceOnUse" x1="289.83" y1="257.01" x2="286.95" y2="271.17"><stop offset="0.000" stop-color="#251501"/><stop offset="1.000" stop-color="#190E00"/></linearGradient><linearGradient id="c3i-g16" gradientUnits="userSpaceOnUse" x1="314.16" y1="257.01" x2="309.14" y2="271.17"><stop offset="0.000" stop-color="#251501"/><stop offset="1.000" stop-color="#190E00"/></linearGradient><linearGradient id="c3i-g17" gradientUnits="userSpaceOnUse" x1="119.43" y1="273.38" x2="131.65" y2="286.20"><stop offset="0.000" stop-color="#251501"/><stop offset="1.000" stop-color="#190E00"/></linearGradient><linearGradient id="c3i-g18" gradientUnits="userSpaceOnUse" x1="317.80" y1="281.78" x2="312.39" y2="293.91"><stop offset="0.000" stop-color="#5F3B07"/><stop offset="1.000" stop-color="#271702"/></linearGradient><linearGradient id="c3i-g19" gradientUnits="userSpaceOnUse" x1="427.37" y1="307.25" x2="411.99" y2="317.24"><stop offset="0.000" stop-color="#FFB326"/><stop offset="1.000" stop-color="#503105"/></linearGradient><linearGradient id="c3i-g20" gradientUnits="userSpaceOnUse" x1="144.55" y1="322.69" x2="154.79" y2="331.34"><stop offset="0.000" stop-color="#251501"/><stop offset="1.000" stop-color="#190E00"/></linearGradient><linearGradient id="c3i-g21" gradientUnits="userSpaceOnUse" x1="266.80" y1="325.61" x2="265.91" y2="334.01"><stop offset="0.000" stop-color="#251501"/><stop offset="1.000" stop-color="#190E00"/></linearGradient><linearGradient id="c3i-g22" gradientUnits="userSpaceOnUse" x1="340.65" y1="325.61" x2="333.03" y2="334.01"><stop offset="0.000" stop-color="#251501"/><stop offset="1.000" stop-color="#190E00"/></linearGradient><linearGradient id="c3i-g23" gradientUnits="userSpaceOnUse" x1="379.51" y1="325.61" x2="368.36" y2="334.01"><stop offset="0.000" stop-color="#251501"/><stop offset="1.000" stop-color="#190E00"/></linearGradient><linearGradient id="c3i-g24" gradientUnits="userSpaceOnUse" x1="96.89" y1="335.42" x2="111.55" y2="342.96"><stop offset="0.000" stop-color="#251501"/><stop offset="1.000" stop-color="#190E00"/></linearGradient><linearGradient id="c3i-g25" gradientUnits="userSpaceOnUse" x1="221.92" y1="335.42" x2="225.14" y2="342.96"><stop offset="0.000" stop-color="#251501"/><stop offset="1.000" stop-color="#190E00"/></linearGradient><linearGradient id="c3i-g26" gradientUnits="userSpaceOnUse" x1="303.97" y1="335.42" x2="299.68" y2="342.96"><stop offset="0.000" stop-color="#251501"/><stop offset="1.000" stop-color="#190E00"/></linearGradient><linearGradient id="c3i-g27" gradientUnits="userSpaceOnUse" x1="417.28" y1="335.42" x2="402.61" y2="342.96"><stop offset="0.000" stop-color="#251501"/><stop offset="1.000" stop-color="#190E00"/></linearGradient><linearGradient id="c3i-g28" gradientUnits="userSpaceOnUse" x1="257.08" y1="155.38" x2="257.08" y2="334.84"><stop offset="0.000" stop-color="#FFF3CF"/><stop offset="0.160" stop-color="#FFD46A"/><stop offset="0.400" stop-color="#F0A21A"/><stop offset="0.520" stop-color="#B86E06"/><stop offset="0.560" stop-color="#FFC94D"/><stop offset="0.740" stop-color="#E0900F"/><stop offset="1.000" stop-color="#7A4504"/></linearGradient><linearGradient id="c3i-g29" gradientUnits="userSpaceOnUse" x1="257.08" y1="155.38" x2="257.08" y2="334.84"><stop offset="0.000" stop-color="#FFF3CF"/><stop offset="0.160" stop-color="#FFD46A"/><stop offset="0.400" stop-color="#F0A21A"/><stop offset="0.520" stop-color="#B86E06"/><stop offset="0.560" stop-color="#FFC94D"/><stop offset="0.740" stop-color="#E0900F"/><stop offset="1.000" stop-color="#7A4504"/></linearGradient><linearGradient id="c3i-g30" gradientUnits="userSpaceOnUse" x1="257.08" y1="155.38" x2="257.08" y2="334.84"><stop offset="0.000" stop-color="#FFF3CF"/><stop offset="0.160" stop-color="#FFD46A"/><stop offset="0.400" stop-color="#F0A21A"/><stop offset="0.520" stop-color="#B86E06"/><stop offset="0.560" stop-color="#FFC94D"/><stop offset="0.740" stop-color="#E0900F"/><stop offset="1.000" stop-color="#7A4504"/></linearGradient><linearGradient id="c3i-g31" gradientUnits="userSpaceOnUse" x1="257.08" y1="155.38" x2="257.08" y2="334.84"><stop offset="0.000" stop-color="#FFF3CF"/><stop offset="0.160" stop-color="#FFD46A"/><stop offset="0.400" stop-color="#F0A21A"/><stop offset="0.520" stop-color="#B86E06"/><stop offset="0.560" stop-color="#FFC94D"/><stop offset="0.740" stop-color="#E0900F"/><stop offset="1.000" stop-color="#7A4504"/></linearGradient><radialGradient id="c3i-ibg" gradientUnits="userSpaceOnUse" cx="256" cy="399" r="330"><stop offset="0" stop-color="#2A1E08"/><stop offset="0.55" stop-color="#141210"/><stop offset="1" stop-color="#0B0B0D"/></radialGradient><radialGradient id="c3i-sb" gradientUnits="userSpaceOnUse" cx="256.0" cy="346.1" r="330.0"><stop offset="0" stop-color="#FFB020" stop-opacity="0.55"/><stop offset="0.35" stop-color="#C47A08" stop-opacity="0.22"/><stop offset="1" stop-color="#C47A08" stop-opacity="0"/></radialGradient></defs><rect width="512" height="512" rx="112" fill="url(#c3i-ibg)"/><path d="M256.0,346.1 L-73.7,332.8 L-68.4,285.7 Z M256.0,346.1 L-62.5,259.7 L-46.9,215.0 Z M256.0,346.1 L-35.3,191.0 L-10.1,150.9 Z M256.0,346.1 L6.5,130.1 L40.0,96.6 Z M256.0,346.1 L60.8,80.0 L100.9,54.8 Z M256.0,346.1 L124.9,43.2 L169.6,27.6 Z M256.0,346.1 L195.6,21.7 L242.7,16.4 Z M256.0,346.1 L269.3,16.4 L316.4,21.7 Z M256.0,346.1 L342.4,27.6 L387.1,43.2 Z M256.0,346.1 L411.1,54.8 L451.2,80.0 Z M256.0,346.1 L472.0,96.6 L505.5,130.1 Z M256.0,346.1 L522.1,150.9 L547.3,191.0 Z M256.0,346.1 L558.9,215.0 L574.5,259.7 Z M256.0,346.1 L580.4,285.7 L585.7,332.8 Z" fill="url(#c3i-sb)" opacity="0.90"/><path d="M96.06,178.28 L119.32,178.28 L130.96,198.51 L109.66,198.51Z" fill="url(#c3i-g1)" stroke="url(#c3i-g1)" stroke-width="0.6" stroke-linejoin="round"/>
<path d="M285.71,178.28 L336.09,178.28 L329.42,198.51 L283.29,198.51Z" fill="url(#c3i-g2)" stroke="url(#c3i-g2)" stroke-width="0.6" stroke-linejoin="round"/>
<path d="M394.85,178.28 L412.74,178.28 L399.59,198.51 L383.21,198.51Z" fill="url(#c3i-g3)" stroke="url(#c3i-g3)" stroke-width="0.6" stroke-linejoin="round"/>
<path d="M119.32,178.28 L124.30,183.25 L135.55,203.12 L130.96,198.51Z" fill="url(#c3i-g4)" stroke="url(#c3i-g4)" stroke-width="0.6" stroke-linejoin="round"/>
<path d="M389.87,183.25 L394.85,178.28 L383.21,198.51 L378.62,203.12Z" fill="url(#c3i-g5)" stroke="url(#c3i-g5)" stroke-width="0.6" stroke-linejoin="round"/>
<path d="M412.74,178.28 L418.58,183.25 L404.89,203.12 L399.59,198.51Z" fill="url(#c3i-g6)" stroke="url(#c3i-g6)" stroke-width="0.6" stroke-linejoin="round"/>
<path d="M94.80,191.61 L96.06,178.28 L109.66,198.51 L108.61,210.86Z" fill="url(#c3i-g7)" stroke="url(#c3i-g7)" stroke-width="0.6" stroke-linejoin="round"/>
<path d="M65.95,191.61 L94.80,191.61 L108.61,210.86 L82.22,210.86Z" fill="url(#c3i-g8)" stroke="url(#c3i-g8)" stroke-width="0.6" stroke-linejoin="round"/>
<path d="M169.56,210.91 L210.45,182.56 L214.40,202.48 L177.09,228.70Z" fill="url(#c3i-g9)" stroke="url(#c3i-g9)" stroke-width="0.6" stroke-linejoin="round"/>
<path d="M149.68,238.08 L153.61,173.33 L162.33,193.93 L159.05,253.75Z" fill="url(#c3i-g10)" stroke="url(#c3i-g10)" stroke-width="0.6" stroke-linejoin="round"/>
<path d="M237.55,335.42 L239.41,157.04 L240.89,178.82 L239.33,342.96Z" fill="url(#c3i-g11)" stroke="url(#c3i-g11)" stroke-width="0.6" stroke-linejoin="round"/>
<path d="M360.55,173.33 L369.21,315.90 L359.04,325.14 L351.83,193.93Z" fill="url(#c3i-g12)" stroke="url(#c3i-g12)" stroke-width="0.6" stroke-linejoin="round"/>
<path d="M418.58,183.25 L429.98,304.39 L414.39,314.61 L404.89,203.12Z" fill="url(#c3i-g13)" stroke="url(#c3i-g13)" stroke-width="0.6" stroke-linejoin="round"/>
<path d="M292.59,254.30 L311.28,254.30 L306.51,268.67 L289.47,268.67Z" fill="url(#c3i-g14)" stroke="url(#c3i-g14)" stroke-width="0.6" stroke-linejoin="round"/>
<path d="M287.07,259.73 L292.59,254.30 L289.47,268.67 L284.43,273.66Z" fill="url(#c3i-g15)" stroke="url(#c3i-g15)" stroke-width="0.6" stroke-linejoin="round"/>
<path d="M311.28,254.30 L317.06,259.73 L311.77,273.66 L306.51,268.67Z" fill="url(#c3i-g16)" stroke="url(#c3i-g16)" stroke-width="0.6" stroke-linejoin="round"/>
<path d="M87.94,310.13 L149.68,238.08 L159.05,253.75 L103.23,319.86Z" fill="url(#c3i-g17)" stroke="url(#c3i-g17)" stroke-width="0.6" stroke-linejoin="round"/>
<path d="M317.06,259.73 L318.56,304.39 L313.02,314.61 L311.77,273.66Z" fill="url(#c3i-g18)" stroke="url(#c3i-g18)" stroke-width="0.6" stroke-linejoin="round"/>
<path d="M429.98,304.39 L424.74,310.13 L409.58,319.86 L414.39,314.61Z" fill="url(#c3i-g19)" stroke="url(#c3i-g19)" stroke-width="0.6" stroke-linejoin="round"/>
<path d="M143.77,335.42 L145.31,310.13 L155.42,319.86 L154.15,342.96Z" fill="url(#c3i-g20)" stroke="url(#c3i-g20)" stroke-width="0.6" stroke-linejoin="round"/>
<path d="M257.08,315.90 L276.62,335.42 L274.83,342.96 L257.08,325.14Z" fill="url(#c3i-g21)" stroke="url(#c3i-g21)" stroke-width="0.6" stroke-linejoin="round"/>
<path d="M331.32,335.42 L349.88,315.90 L341.46,325.14 L324.52,342.96Z" fill="url(#c3i-g22)" stroke="url(#c3i-g22)" stroke-width="0.6" stroke-linejoin="round"/>
<path d="M369.21,315.90 L389.93,335.42 L377.77,342.96 L359.04,325.14Z" fill="url(#c3i-g23)" stroke="url(#c3i-g23)" stroke-width="0.6" stroke-linejoin="round"/>
<path d="M50.00,335.42 L143.77,335.42 L154.15,342.96 L68.96,342.96Z" fill="url(#c3i-g24)" stroke="url(#c3i-g24)" stroke-width="0.6" stroke-linejoin="round"/>
<path d="M206.29,335.42 L237.55,335.42 L239.33,342.96 L210.94,342.96Z" fill="url(#c3i-g25)" stroke="url(#c3i-g25)" stroke-width="0.6" stroke-linejoin="round"/>
<path d="M276.62,335.42 L331.32,335.42 L324.52,342.96 L274.83,342.96Z" fill="url(#c3i-g26)" stroke="url(#c3i-g26)" stroke-width="0.6" stroke-linejoin="round"/>
<path d="M389.93,335.42 L444.63,335.42 L427.46,342.96 L377.77,342.96Z" fill="url(#c3i-g27)" stroke="url(#c3i-g27)" stroke-width="0.6" stroke-linejoin="round"/>
<path d="M50.00,335.42 L143.77,335.42 L138.93,330.48 L53.35,330.48Z" fill="#2C1A02" stroke="#2C1A02" stroke-width="0.6" stroke-linejoin="round"/>
<path d="M143.77,335.42 L145.31,310.13 L139.99,313.64 L138.93,330.48Z" fill="#643E07" stroke="#643E07" stroke-width="0.6" stroke-linejoin="round"/>
<path d="M145.31,310.13 L87.94,310.13 L77.73,313.64 L139.99,313.64Z" fill="#FFF4D6" stroke="#FFF4D6" stroke-width="0.6" stroke-linejoin="round"/>
<path d="M87.94,310.13 L149.68,238.08 L144.95,235.56 L77.73,313.64Z" fill="#2C1A02" stroke="#2C1A02" stroke-width="0.6" stroke-linejoin="round"/>
<path d="M149.68,238.08 L153.61,173.33 L148.90,173.27 L144.95,235.56Z" fill="#643E07" stroke="#643E07" stroke-width="0.6" stroke-linejoin="round"/>
<path d="M153.61,173.33 L136.93,157.04 L134.29,158.96 L148.90,173.27Z" fill="#FFB020" stroke="#FFB020" stroke-width="0.6" stroke-linejoin="round"/>
<path d="M136.93,157.04 L87.46,157.04 L87.64,158.96 L134.29,158.96Z" fill="#FFF4D6" stroke="#FFF4D6" stroke-width="0.6" stroke-linejoin="round"/>
<path d="M87.46,157.04 L67.98,173.33 L70.55,173.27 L87.64,158.96Z" fill="#FFF4D6" stroke="#FFF4D6" stroke-width="0.6" stroke-linejoin="round"/>
<path d="M67.98,173.33 L65.95,191.61 L69.11,186.44 L70.55,173.27Z" fill="#DE9314" stroke="#DE9314" stroke-width="0.6" stroke-linejoin="round"/>
<path d="M65.95,191.61 L94.80,191.61 L90.12,186.44 L69.11,186.44Z" fill="#2C1A02" stroke="#2C1A02" stroke-width="0.6" stroke-linejoin="round"/>
<path d="M94.80,191.61 L96.06,178.28 L91.42,173.09 L90.12,186.44Z" fill="#643E07" stroke="#643E07" stroke-width="0.6" stroke-linejoin="round"/>
<path d="M96.06,178.28 L119.32,178.28 L120.36,173.09 L91.42,173.09Z" fill="#2C1A02" stroke="#2C1A02" stroke-width="0.6" stroke-linejoin="round"/>
<path d="M119.32,178.28 L124.30,183.25 L127.53,180.22 L120.36,173.09Z" fill="#3D2403" stroke="#3D2403" stroke-width="0.6" stroke-linejoin="round"/>
<path d="M124.30,183.25 L120.86,227.63 L123.94,227.68 L127.53,180.22Z" fill="#DE9314" stroke="#DE9314" stroke-width="0.6" stroke-linejoin="round"/>
<path d="M120.86,227.63 L53.44,304.39 L56.14,305.03 L123.94,227.68Z" fill="#FFF3D3" stroke="#FFF3D3" stroke-width="0.6" stroke-linejoin="round"/>
<path d="M53.44,304.39 L50.00,335.42 L53.35,330.48 L56.14,305.03Z" fill="#DE9314" stroke="#DE9314" stroke-width="0.6" stroke-linejoin="round"/>
<path d="M239.41,157.04 L211.14,157.04 L214.67,158.96 L235.34,158.96Z" fill="#FFF4D6" stroke="#FFF4D6" stroke-width="0.6" stroke-linejoin="round"/>
<path d="M211.14,157.04 L211.13,157.65 L214.70,157.77 L214.67,158.96Z" fill="#DE9314" stroke="#DE9314" stroke-width="0.6" stroke-linejoin="round"/>
<path d="M211.13,157.65 L170.86,185.19 L174.19,185.51 L214.70,157.77Z" fill="#FFF4D6" stroke="#FFF4D6" stroke-width="0.6" stroke-linejoin="round"/>
<path d="M170.86,185.19 L169.56,210.91 L173.40,201.91 L174.19,185.51Z" fill="#DE9314" stroke="#DE9314" stroke-width="0.6" stroke-linejoin="round"/>
<path d="M169.56,210.91 L210.45,182.56 L214.30,173.64 L173.40,201.91Z" fill="#2C1A02" stroke="#2C1A02" stroke-width="0.6" stroke-linejoin="round"/>
<path d="M210.45,182.56 L206.29,335.42 L210.37,330.48 L214.30,173.64Z" fill="#DE9314" stroke="#DE9314" stroke-width="0.6" stroke-linejoin="round"/>
<path d="M206.29,335.42 L237.55,335.42 L233.14,330.48 L210.37,330.48Z" fill="#2C1A02" stroke="#2C1A02" stroke-width="0.6" stroke-linejoin="round"/>
<path d="M237.55,335.42 L239.41,157.04 L235.34,158.96 L233.14,330.48Z" fill="#643E07" stroke="#643E07" stroke-width="0.6" stroke-linejoin="round"/>
<path d="M257.08,315.90 L276.62,335.42 L278.50,330.48 L261.36,313.43Z" fill="#3D2403" stroke="#3D2403" stroke-width="0.6" stroke-linejoin="round"/>
<path d="M276.62,335.42 L331.32,335.42 L329.88,330.48 L278.50,330.48Z" fill="#2C1A02" stroke="#2C1A02" stroke-width="0.6" stroke-linejoin="round"/>
<path d="M331.32,335.42 L349.88,315.90 L346.15,313.43 L329.88,330.48Z" fill="#2C1A02" stroke="#2C1A02" stroke-width="0.6" stroke-linejoin="round"/>
<path d="M349.88,315.90 L346.51,248.90 L343.06,249.42 L346.15,313.43Z" fill="#643E07" stroke="#643E07" stroke-width="0.6" stroke-linejoin="round"/>
<path d="M346.51,248.90 L327.17,231.14 L326.10,233.80 L343.06,249.42Z" fill="#FFB020" stroke="#FFB020" stroke-width="0.6" stroke-linejoin="round"/>
<path d="M327.17,231.14 L286.59,231.14 L282.76,233.80 L326.10,233.80Z" fill="#FFF4D6" stroke="#FFF4D6" stroke-width="0.6" stroke-linejoin="round"/>
<path d="M286.59,231.14 L285.71,178.28 L281.88,173.09 L282.76,233.80Z" fill="#643E07" stroke="#643E07" stroke-width="0.6" stroke-linejoin="round"/>
<path d="M285.71,178.28 L336.09,178.28 L332.48,173.09 L281.88,173.09Z" fill="#2C1A02" stroke="#2C1A02" stroke-width="0.6" stroke-linejoin="round"/>
<path d="M336.09,178.28 L335.11,157.04 L331.85,158.96 L332.48,173.09Z" fill="#643E07" stroke="#643E07" stroke-width="0.6" stroke-linejoin="round"/>
<path d="M335.11,157.04 L274.75,157.04 L276.53,158.96 L331.85,158.96Z" fill="#FFF4D6" stroke="#FFF4D6" stroke-width="0.6" stroke-linejoin="round"/>
<path d="M274.75,157.04 L257.08,173.33 L261.04,173.27 L276.53,158.96Z" fill="#FFF4D6" stroke="#FFF4D6" stroke-width="0.6" stroke-linejoin="round"/>
<path d="M257.08,173.33 L257.08,315.90 L261.36,313.43 L261.04,173.27Z" fill="#DE9314" stroke="#DE9314" stroke-width="0.6" stroke-linejoin="round"/>
<path d="M293.70,310.13 L287.82,304.39 L283.80,305.36 L292.26,313.64Z" fill="#FFB020" stroke="#FFB020" stroke-width="0.6" stroke-linejoin="round"/>
<path d="M287.82,304.39 L287.07,259.73 L283.10,257.00 L283.80,305.36Z" fill="#643E07" stroke="#643E07" stroke-width="0.6" stroke-linejoin="round"/>
<path d="M287.07,259.73 L292.59,254.30 L291.04,249.21 L283.10,257.00Z" fill="#2C1A02" stroke="#2C1A02" stroke-width="0.6" stroke-linejoin="round"/>
<path d="M292.59,254.30 L311.28,254.30 L313.23,249.21 L291.04,249.21Z" fill="#2C1A02" stroke="#2C1A02" stroke-width="0.6" stroke-linejoin="round"/>
<path d="M311.28,254.30 L317.06,259.73 L321.56,257.00 L313.23,249.21Z" fill="#3D2403" stroke="#3D2403" stroke-width="0.6" stroke-linejoin="round"/>
<path d="M317.06,259.73 L318.56,304.39 L323.30,305.36 L321.56,257.00Z" fill="#DE9314" stroke="#DE9314" stroke-width="0.6" stroke-linejoin="round"/>
<path d="M318.56,304.39 L312.97,310.13 L315.26,313.64 L323.30,305.36Z" fill="#FFF4D6" stroke="#FFF4D6" stroke-width="0.6" stroke-linejoin="round"/>
<path d="M312.97,310.13 L293.70,310.13 L292.26,313.64 L315.26,313.64Z" fill="#FFF4D6" stroke="#FFF4D6" stroke-width="0.6" stroke-linejoin="round"/>
<path d="M360.55,173.33 L369.21,315.90 L374.16,313.43 L365.26,173.27Z" fill="#DE9314" stroke="#DE9314" stroke-width="0.6" stroke-linejoin="round"/>
<path d="M369.21,315.90 L389.93,335.42 L392.34,330.48 L374.16,313.43Z" fill="#3D2403" stroke="#3D2403" stroke-width="0.6" stroke-linejoin="round"/>
<path d="M389.93,335.42 L444.63,335.42 L443.72,330.48 L392.34,330.48Z" fill="#2C1A02" stroke="#2C1A02" stroke-width="0.6" stroke-linejoin="round"/>
<path d="M444.63,335.42 L462.00,315.90 L458.95,313.43 L443.72,330.48Z" fill="#2C1A02" stroke="#2C1A02" stroke-width="0.6" stroke-linejoin="round"/>
<path d="M462.00,315.90 L446.19,173.33 L443.61,173.27 L458.95,313.43Z" fill="#643E07" stroke="#643E07" stroke-width="0.6" stroke-linejoin="round"/>
<path d="M446.19,173.33 L426.71,157.04 L426.52,158.96 L443.61,173.27Z" fill="#FFB020" stroke="#FFB020" stroke-width="0.6" stroke-linejoin="round"/>
<path d="M426.71,157.04 L377.23,157.04 L379.88,158.96 L426.52,158.96Z" fill="#FFF4D6" stroke="#FFF4D6" stroke-width="0.6" stroke-linejoin="round"/>
<path d="M377.23,157.04 L360.55,173.33 L365.26,173.27 L379.88,158.96Z" fill="#FFF4D6" stroke="#FFF4D6" stroke-width="0.6" stroke-linejoin="round"/>
<path d="M405.47,310.13 L399.25,304.39 L396.10,305.36 L405.07,313.64Z" fill="#FFB020" stroke="#FFB020" stroke-width="0.6" stroke-linejoin="round"/>
<path d="M399.25,304.39 L389.87,183.25 L386.63,180.22 L396.10,305.36Z" fill="#643E07" stroke="#643E07" stroke-width="0.6" stroke-linejoin="round"/>
<path d="M389.87,183.25 L394.85,178.28 L393.80,173.09 L386.63,180.22Z" fill="#2C1A02" stroke="#2C1A02" stroke-width="0.6" stroke-linejoin="round"/>
<path d="M394.85,178.28 L412.74,178.28 L415.04,173.09 L393.80,173.09Z" fill="#2C1A02" stroke="#2C1A02" stroke-width="0.6" stroke-linejoin="round"/>
<path d="M412.74,178.28 L418.58,183.25 L423.44,180.22 L415.04,173.09Z" fill="#3D2403" stroke="#3D2403" stroke-width="0.6" stroke-linejoin="round"/>
<path d="M418.58,183.25 L429.98,304.39 L435.60,305.36 L423.44,180.22Z" fill="#DE9314" stroke="#DE9314" stroke-width="0.6" stroke-linejoin="round"/>
<path d="M429.98,304.39 L424.74,310.13 L428.07,313.64 L435.60,305.36Z" fill="#FFF4D6" stroke="#FFF4D6" stroke-width="0.6" stroke-linejoin="round"/>
<path d="M424.74,310.13 L405.47,310.13 L405.07,313.64 L428.07,313.64Z" fill="#FFF4D6" stroke="#FFF4D6" stroke-width="0.6" stroke-linejoin="round"/>
<path d="M53.35,330.48 L138.93,330.48 L139.99,313.64 L77.73,313.64 L144.95,235.56 L148.90,173.27 L134.29,158.96 L87.64,158.96 L70.55,173.27 L69.11,186.44 L90.12,186.44 L91.42,173.09 L120.36,173.09 L127.53,180.22 L123.94,227.68 L56.14,305.03Z" fill="url(#c3i-g28)" fill-rule="evenodd"/>
<path d="M235.34,158.96 L214.67,158.96 L214.70,157.77 L174.19,185.51 L173.40,201.91 L214.30,173.64 L210.37,330.48 L233.14,330.48Z" fill="url(#c3i-g29)" fill-rule="evenodd"/>
<path d="M261.36,313.43 L278.50,330.48 L329.88,330.48 L346.15,313.43 L343.06,249.42 L326.10,233.80 L282.76,233.80 L281.88,173.09 L332.48,173.09 L331.85,158.96 L276.53,158.96 L261.04,173.27Z M292.26,313.64 L283.80,305.36 L283.10,257.00 L291.04,249.21 L313.23,249.21 L321.56,257.00 L323.30,305.36 L315.26,313.64Z" fill="url(#c3i-g30)" fill-rule="evenodd"/>
<path d="M365.26,173.27 L374.16,313.43 L392.34,330.48 L443.72,330.48 L458.95,313.43 L443.61,173.27 L426.52,158.96 L379.88,158.96Z M405.07,313.64 L396.10,305.36 L386.63,180.22 L393.80,173.09 L415.04,173.09 L423.44,180.22 L435.60,305.36 L428.07,313.64Z" fill="url(#c3i-g31)" fill-rule="evenodd"/><rect x="25.9" y="339.8" width="462.3" height="9" fill="#C98410"/><rect x="25.9" y="339.8" width="462.3" height="3" fill="#FFE3A0"/></svg>