<svg xmlns="http://www.w3.org/2000/svg" viewBox="0 0 512 512" width="512" height="512"><defs><radialGradient id="if-bg" gradientUnits="userSpaceOnUse" cx="256" cy="300" r="360"><stop offset="0" stop-color="#2E2109"/><stop offset="0.5" stop-color="#151310"/><stop offset="1" stop-color="#0B0B0D"/></radialGradient><linearGradient id="ifb-b1" gradientUnits="userSpaceOnUse" x1="256.0" y1="330.0" x2="-42.5" y2="128.7"><stop offset="0" stop-color="#FFE3A6" stop-opacity="0.100"/><stop offset="0.35" stop-color="#FFE3A6" stop-opacity="0.045"/><stop offset="1" stop-color="#FFE3A6" stop-opacity="0"/></linearGradient><linearGradient id="ifb-b2" gradientUnits="userSpaceOnUse" x1="256.0" y1="330.0" x2="87.0" y2="12.1"><stop offset="0" stop-color="#FFE3A6" stop-opacity="0.150"/><stop offset="0.35" stop-color="#FFE3A6" stop-opacity="0.068"/><stop offset="1" stop-color="#FFE3A6" stop-opacity="0"/></linearGradient><linearGradient id="ifb-b3" gradientUnits="userSpaceOnUse" x1="256.0" y1="330.0" x2="256.0" y2="-30.0"><stop offset="0" stop-color="#FFE3A6" stop-opacity="0.130"/><stop offset="0.35" stop-color="#FFE3A6" stop-opacity="0.059"/><stop offset="1" stop-color="#FFE3A6" stop-opacity="0"/></linearGradient><linearGradient id="ifb-b4" gradientUnits="userSpaceOnUse" x1="256.0" y1="330.0" x2="425.0" y2="12.1"><stop offset="0" stop-color="#FFE3A6" stop-opacity="0.150"/><stop offset="0.35" stop-color="#FFE3A6" stop-opacity="0.068"/><stop offset="1" stop-color="#FFE3A6" stop-opacity="0"/></linearGradient><linearGradient id="ifb-b5" gradientUnits="userSpaceOnUse" x1="256.0" y1="330.0" x2="554.5" y2="128.7"><stop offset="0" stop-color="#FFE3A6" stop-opacity="0.100"/><stop offset="0.35" stop-color="#FFE3A6" stop-opacity="0.045"/><stop offset="1" stop-color="#FFE3A6" stop-opacity="0"/></linearGradient><linearGradient id="ifm-g1" gradientUnits="userSpaceOnUse" x1="346.40" y1="340.16" x2="318.19" y2="330.78"><stop offset="0.000" stop-color="#CB8511"/><stop offset="1.000" stop-color="#351F03"/></linearGradient><linearGradient id="ifm-g2" gradientUnits="userSpaceOnUse" x1="342.72" y1="376.95" x2="314.79" y2="364.77"><stop offset="0.000" stop-color="#FFBF3F"/><stop offset="1.000" stop-color="#462A04"/></linearGradient><linearGradient id="ifm-g3" gradientUnits="userSpaceOnUse" x1="342.96" y1="303.66" x2="314.92" y2="297.03"><stop offset="0.000" stop-color="#251501"/><stop offset="1.000" stop-color="#180D00"/></linearGradient><linearGradient id="ifm-g4" gradientUnits="userSpaceOnUse" x1="330.54" y1="381.75" x2="303.40" y2="369.14"><stop offset="0.000" stop-color="#CB8511"/><stop offset="1.000" stop-color="#351F03"/></linearGradient><linearGradient id="ifm-g5" gradientUnits="userSpaceOnUse" x1="330.85" y1="262.39" x2="303.55" y2="258.87"><stop offset="0.000" stop-color="#CB8511"/><stop offset="1.000" stop-color="#351F03"/></linearGradient><linearGradient id="ifm-g6" gradientUnits="userSpaceOnUse" x1="317.79" y1="150.54" x2="291.23" y2="155.64"><stop offset="0.000" stop-color="#CB8511"/><stop offset="1.000" stop-color="#351F03"/></linearGradient><linearGradient id="ifm-g7" gradientUnits="userSpaceOnUse" x1="290.93" y1="410.12" x2="266.44" y2="395.12"><stop offset="0.000" stop-color="#251501"/><stop offset="1.000" stop-color="#180D00"/></linearGradient><linearGradient id="ifm-g8" gradientUnits="userSpaceOnUse" x1="317.96" y1="67.53" x2="291.30" y2="79.11"><stop offset="0.000" stop-color="#CB8511"/><stop offset="1.000" stop-color="#351F03"/></linearGradient><linearGradient id="ifm-g9" gradientUnits="userSpaceOnUse" x1="291.04" y1="276.06" x2="266.41" y2="271.43"><stop offset="0.000" stop-color="#FFBF3F"/><stop offset="1.000" stop-color="#462A04"/></linearGradient><linearGradient id="ifm-g10" gradientUnits="userSpaceOnUse" x1="292.60" y1="211.93" x2="267.80" y2="212.29"><stop offset="0.000" stop-color="#CB8511"/><stop offset="1.000" stop-color="#351F03"/></linearGradient><linearGradient id="ifm-g11" gradientUnits="userSpaceOnUse" x1="278.96" y1="343.97" x2="255.21" y2="334.02"><stop offset="0.000" stop-color="#CB8511"/><stop offset="1.000" stop-color="#351F03"/></linearGradient><linearGradient id="ifm-g12" gradientUnits="userSpaceOnUse" x1="305.41" y1="77.39" x2="279.59" y2="88.24"><stop offset="0.000" stop-color="#FFBC3A"/><stop offset="1.000" stop-color="#452A04"/></linearGradient><linearGradient id="ifm-g13" gradientUnits="userSpaceOnUse" x1="292.70" y1="105.61" x2="267.78" y2="114.30"><stop offset="0.000" stop-color="#CB8511"/><stop offset="1.000" stop-color="#351F03"/></linearGradient><linearGradient id="ifm-g14" gradientUnits="userSpaceOnUse" x1="221.70" y1="380.05" x2="202.00" y2="367.01"><stop offset="0.000" stop-color="#CB8511"/><stop offset="1.000" stop-color="#351F03"/></linearGradient><linearGradient id="ifm-g15" gradientUnits="userSpaceOnUse" x1="217.74" y1="386.08" x2="198.33" y2="372.54"><stop offset="0.000" stop-color="#FFBF3F"/><stop offset="1.000" stop-color="#462A04"/></linearGradient><linearGradient id="ifm-g16" gradientUnits="userSpaceOnUse" x1="217.72" y1="374.58" x2="198.30" y2="361.95"><stop offset="0.000" stop-color="#251501"/><stop offset="1.000" stop-color="#180D00"/></linearGradient><linearGradient id="ifm-g17" gradientUnits="userSpaceOnUse" x1="235.49" y1="122.70" x2="214.59" y2="130.21"><stop offset="0.000" stop-color="#CB8511"/><stop offset="1.000" stop-color="#351F03"/></linearGradient><linearGradient id="ifm-g18" gradientUnits="userSpaceOnUse" x1="210.41" y1="331.29" x2="191.49" y2="322.08"><stop offset="0.000" stop-color="#CB8511"/><stop offset="1.000" stop-color="#351F03"/></linearGradient><linearGradient id="ifm-g19" gradientUnits="userSpaceOnUse" x1="204.15" y1="391.20" x2="185.73" y2="377.18"><stop offset="0.000" stop-color="#CB8511"/><stop offset="1.000" stop-color="#351F03"/></linearGradient><linearGradient id="ifm-g20" gradientUnits="userSpaceOnUse" x1="231.49" y1="105.82" x2="210.87" y2="114.71"><stop offset="0.000" stop-color="#251501"/><stop offset="1.000" stop-color="#180D00"/></linearGradient><linearGradient id="ifm-g21" gradientUnits="userSpaceOnUse" x1="208.78" y1="264.92" x2="189.93" y2="261.02"><stop offset="0.000" stop-color="#CB8511"/><stop offset="1.000" stop-color="#351F03"/></linearGradient><linearGradient id="ifm-g22" gradientUnits="userSpaceOnUse" x1="213.84" y1="100.76" x2="194.49" y2="110.12"><stop offset="0.000" stop-color="#251501"/><stop offset="1.000" stop-color="#180D00"/></linearGradient><linearGradient id="ifm-g23" gradientUnits="userSpaceOnUse" x1="198.57" y1="158.40" x2="180.39" y2="163.12"><stop offset="0.000" stop-color="#FFB832"/><stop offset="1.000" stop-color="#442904"/></linearGradient><linearGradient id="ifm-g24" gradientUnits="userSpaceOnUse" x1="180.29" y1="116.18" x2="163.45" y2="124.40"><stop offset="0.000" stop-color="#251501"/><stop offset="1.000" stop-color="#180D00"/></linearGradient><linearGradient id="ifm-g25" gradientUnits="userSpaceOnUse" x1="159.29" y1="279.55" x2="144.14" y2="274.38"><stop offset="0.000" stop-color="#FFBF3F"/><stop offset="1.000" stop-color="#462A04"/></linearGradient><linearGradient id="ifm-g26" gradientUnits="userSpaceOnUse" x1="146.17" y1="351.45" x2="132.06" y2="340.36"><stop offset="0.000" stop-color="#CB8511"/><stop offset="1.000" stop-color="#351F03"/></linearGradient><linearGradient id="ifm-g27" gradientUnits="userSpaceOnUse" x1="160.61" y1="205.41" x2="145.32" y2="206.32"><stop offset="0.000" stop-color="#CB8511"/><stop offset="1.000" stop-color="#351F03"/></linearGradient><linearGradient id="ifm-g28" gradientUnits="userSpaceOnUse" x1="173.43" y1="71.28" x2="157.08" y2="83.22"><stop offset="0.000" stop-color="#FFBF3F"/><stop offset="1.000" stop-color="#462A04"/></linearGradient><linearGradient id="ifm-g29" gradientUnits="userSpaceOnUse" x1="160.10" y1="99.81" x2="144.78" y2="109.45"><stop offset="0.000" stop-color="#CB8511"/><stop offset="1.000" stop-color="#351F03"/></linearGradient><linearGradient id="ifm-g30" gradientUnits="userSpaceOnUse" x1="271.41" y1="62.73" x2="271.41" y2="426.44"><stop offset="0.000" stop-color="#FFF3CF"/><stop offset="0.160" stop-color="#FFD46A"/><stop offset="0.400" stop-color="#F0A21A"/><stop offset="0.520" stop-color="#B86E06"/><stop offset="0.560" stop-color="#FFC94D"/><stop offset="0.740" stop-color="#E0900F"/><stop offset="1.000" stop-color="#7A4504"/></linearGradient><linearGradient id="ifm-g31" gradientUnits="userSpaceOnUse" x1="271.41" y1="62.73" x2="271.41" y2="426.44"><stop offset="0.000" stop-color="#FFF3CF"/><stop offset="0.160" stop-color="#FFD46A"/><stop offset="0.400" stop-color="#F0A21A"/><stop offset="0.520" stop-color="#B86E06"/><stop offset="0.560" stop-color="#FFC94D"/><stop offset="0.740" stop-color="#E0900F"/><stop offset="1.000" stop-color="#7A4504"/></linearGradient><linearGradient id="ifm-g32" gradientUnits="userSpaceOnUse" x1="271.41" y1="62.73" x2="271.41" y2="426.44"><stop offset="0.000" stop-color="#FFF3CF"/><stop offset="0.160" stop-color="#FFD46A"/><stop offset="0.400" stop-color="#F0A21A"/><stop offset="0.520" stop-color="#B86E06"/><stop offset="0.560" stop-color="#FFC94D"/><stop offset="0.740" stop-color="#E0900F"/><stop offset="1.000" stop-color="#7A4504"/></linearGradient><linearGradient id="ifm-g33" gradientUnits="userSpaceOnUse" x1="271.41" y1="62.73" x2="271.41" y2="426.44"><stop offset="0.000" stop-color="#FFF3CF"/><stop offset="0.160" stop-color="#FFD46A"/><stop offset="0.400" stop-color="#F0A21A"/><stop offset="0.520" stop-color="#B86E06"/><stop offset="0.560" stop-color="#FFC94D"/><stop offset="0.740" stop-color="#E0900F"/><stop offset="1.000" stop-color="#7A4504"/></linearGradient><linearGradient id="ifm-bar" gradientUnits="userSpaceOnUse" x1="101.9" y1="0" x2="410.1" y2="0"><stop offset="0" stop-color="#6B3F04" stop-opacity="0"/><stop offset="0.5" stop-color="#FFD36B"/><stop offset="1" stop-color="#6B3F04" stop-opacity="0"/></linearGradient></defs><rect width="512" height="512" rx="112" fill="url(#if-bg)"/><path d="M258.80,325.85 L-6.11,74.80 L-78.80,182.58 L253.20,334.15Z" fill="url(#ifb-b1)"/><path d="M260.41,327.65 L144.38,-18.38 L29.60,42.65 L251.59,332.35Z" fill="url(#ifb-b2)"/><path d="M261.00,330.00 L321.00,-30.00 L191.00,-30.00 L251.00,330.00Z" fill="url(#ifb-b3)"/><path d="M260.41,332.35 L482.40,42.65 L367.62,-18.38 L251.59,327.65Z" fill="url(#ifb-b4)"/><path d="M258.80,334.15 L590.80,182.58 L518.11,74.80 L253.20,325.85Z" fill="url(#ifb-b5)"/><path d="M346.51,307.43 L346.29,372.81 L318.13,360.96 L318.25,300.52Z" fill="url(#ifm-g1)" stroke="url(#ifm-g1)" stroke-width="0.6" stroke-linejoin="round"/>
<path d="M346.29,372.81 L339.15,381.10 L311.45,368.59 L318.13,360.96Z" fill="url(#ifm-g2)" stroke="url(#ifm-g2)" stroke-width="0.6" stroke-linejoin="round"/>
<path d="M339.39,299.89 L346.51,307.43 L318.25,300.52 L311.58,293.53Z" fill="url(#ifm-g3)" stroke="url(#ifm-g3)" stroke-width="0.6" stroke-linejoin="round"/>
<path d="M339.15,381.10 L321.86,382.39 L295.29,369.70 L311.45,368.59Z" fill="url(#ifm-g4)" stroke="url(#ifm-g4)" stroke-width="0.6" stroke-linejoin="round"/>
<path d="M358.02,261.82 L302.99,262.96 L277.54,259.36 L328.97,258.39Z" fill="url(#ifm-g5)" stroke="url(#ifm-g5)" stroke-width="0.6" stroke-linejoin="round"/>
<path d="M317.89,104.62 L317.70,196.27 L291.19,197.83 L291.27,113.30Z" fill="url(#ifm-g6)" stroke="url(#ifm-g6)" stroke-width="0.6" stroke-linejoin="round"/>
<path d="M278.94,398.38 L302.77,421.72 L277.50,405.91 L255.25,384.22Z" fill="url(#ifm-g7)" stroke="url(#ifm-g7)" stroke-width="0.6" stroke-linejoin="round"/>
<path d="M317.96,67.23 L317.96,67.84 L291.30,79.39 L291.30,78.82Z" fill="url(#ifm-g8)" stroke="url(#ifm-g8)" stroke-width="0.6" stroke-linejoin="round"/>
<path d="M302.99,262.96 L278.98,289.29 L255.18,283.59 L277.54,259.36Z" fill="url(#ifm-g9)" stroke="url(#ifm-g9)" stroke-width="0.6" stroke-linejoin="round"/>
<path d="M292.62,196.04 L292.59,227.79 L267.80,226.91 L267.79,197.64Z" fill="url(#ifm-g10)" stroke="url(#ifm-g10)" stroke-width="0.6" stroke-linejoin="round"/>
<path d="M278.98,289.29 L278.94,398.38 L255.25,384.22 L255.18,283.59Z" fill="url(#ifm-g11)" stroke="url(#ifm-g11)" stroke-width="0.6" stroke-linejoin="round"/>
<path d="M317.96,67.84 L292.72,87.03 L267.78,97.18 L291.30,79.39Z" fill="url(#ifm-g12)" stroke="url(#ifm-g12)" stroke-width="0.6" stroke-linejoin="round"/>
<path d="M292.72,87.03 L292.68,124.16 L267.78,131.39 L267.78,97.18Z" fill="url(#ifm-g13)" stroke="url(#ifm-g13)" stroke-width="0.6" stroke-linejoin="round"/>
<path d="M221.70,378.41 L221.71,381.69 L202.01,368.52 L202.00,365.49Z" fill="url(#ifm-g14)" stroke="url(#ifm-g14)" stroke-width="0.6" stroke-linejoin="round"/>
<path d="M221.71,381.69 L213.77,390.48 L194.65,376.57 L202.01,368.52Z" fill="url(#ifm-g15)" stroke="url(#ifm-g15)" stroke-width="0.6" stroke-linejoin="round"/>
<path d="M213.72,370.73 L221.70,378.41 L202.00,365.49 L194.59,358.39Z" fill="url(#ifm-g16)" stroke="url(#ifm-g16)" stroke-width="0.6" stroke-linejoin="round"/>
<path d="M235.47,110.19 L235.51,135.19 L214.62,141.71 L214.56,118.71Z" fill="url(#ifm-g17)" stroke="url(#ifm-g17)" stroke-width="0.6" stroke-linejoin="round"/>
<path d="M234.24,330.12 L186.08,332.49 L168.95,323.09 L213.61,321.08Z" fill="url(#ifm-g18)" stroke="url(#ifm-g18)" stroke-width="0.6" stroke-linejoin="round"/>
<path d="M213.77,390.48 L194.45,391.92 L176.74,377.79 L194.65,376.57Z" fill="url(#ifm-g19)" stroke="url(#ifm-g19)" stroke-width="0.6" stroke-linejoin="round"/>
<path d="M227.50,101.44 L235.47,110.19 L214.56,118.71 L207.16,110.70Z" fill="url(#ifm-g20)" stroke="url(#ifm-g20)" stroke-width="0.6" stroke-linejoin="round"/>
<path d="M243.87,264.19 L172.60,265.67 L156.43,261.66 L222.50,260.41Z" fill="url(#ifm-g21)" stroke="url(#ifm-g21)" stroke-width="0.6" stroke-linejoin="round"/>
<path d="M200.02,100.07 L227.50,101.44 L207.16,110.70 L181.69,109.54Z" fill="url(#ifm-g22)" stroke="url(#ifm-g22)" stroke-width="0.6" stroke-linejoin="round"/>
<path d="M235.51,135.19 L160.50,182.31 L145.20,185.13 L214.62,141.71Z" fill="url(#ifm-g23)" stroke="url(#ifm-g23)" stroke-width="0.6" stroke-linejoin="round"/>
<path d="M160.17,115.32 L200.07,117.02 L181.75,125.11 L144.86,123.68Z" fill="url(#ifm-g24)" stroke="url(#ifm-g24)" stroke-width="0.6" stroke-linejoin="round"/>
<path d="M172.60,265.67 L145.85,293.57 L131.74,287.22 L156.43,261.66Z" fill="url(#ifm-g25)" stroke="url(#ifm-g25)" stroke-width="0.6" stroke-linejoin="round"/>
<path d="M145.85,293.57 L146.48,409.04 L132.39,393.24 L131.74,287.22Z" fill="url(#ifm-g26)" stroke="url(#ifm-g26)" stroke-width="0.6" stroke-linejoin="round"/>
<path d="M160.50,182.31 L160.72,228.45 L145.43,227.47 L145.20,185.13Z" fill="url(#ifm-g27)" stroke="url(#ifm-g27)" stroke-width="0.6" stroke-linejoin="round"/>
<path d="M186.71,58.41 L160.02,84.28 L144.70,95.21 L169.34,71.36Z" fill="url(#ifm-g28)" stroke="url(#ifm-g28)" stroke-width="0.6" stroke-linejoin="round"/>
<path d="M160.02,84.28 L160.17,115.32 L144.86,123.68 L144.70,95.21Z" fill="url(#ifm-g29)" stroke="url(#ifm-g29)" stroke-width="0.6" stroke-linejoin="round"/>
<path d="M160.72,228.45 L272.91,227.89 L268.78,221.11 L169.33,221.31Z" fill="#352003" stroke="#352003" stroke-width="0.6" stroke-linejoin="round"/>
<path d="M272.91,227.89 L272.91,188.82 L268.78,195.44 L268.78,221.11Z" fill="#352003" stroke="#352003" stroke-width="0.6" stroke-linejoin="round"/>
<path d="M272.91,188.82 L227.89,188.27 L206.42,194.86 L268.78,195.44Z" fill="#FFEAB5" stroke="#FFEAB5" stroke-width="0.6" stroke-linejoin="round"/>
<path d="M227.89,188.27 L272.91,159.11 L268.78,154.66 L206.42,194.86Z" fill="#2C1A02" stroke="#2C1A02" stroke-width="0.6" stroke-linejoin="round"/>
<path d="M272.91,159.11 L272.92,90.55 L268.77,92.08 L268.78,154.66Z" fill="#352003" stroke="#352003" stroke-width="0.6" stroke-linejoin="round"/>
<path d="M272.92,90.55 L248.04,62.53 L247.49,68.17 L268.77,92.08Z" fill="#B9790F" stroke="#B9790F" stroke-width="0.6" stroke-linejoin="round"/>
<path d="M248.04,62.53 L186.71,58.41 L191.38,64.54 L247.49,68.17Z" fill="#FFEAB5" stroke="#FFEAB5" stroke-width="0.6" stroke-linejoin="round"/>
<path d="M186.71,58.41 L160.02,84.28 L168.72,86.60 L191.38,64.54Z" fill="#FFF4D6" stroke="#FFF4D6" stroke-width="0.6" stroke-linejoin="round"/>
<path d="M160.02,84.28 L160.17,115.32 L168.82,107.51 L168.72,86.60Z" fill="#FFEAB5" stroke="#FFEAB5" stroke-width="0.6" stroke-linejoin="round"/>
<path d="M160.17,115.32 L200.07,117.02 L194.95,108.72 L168.82,107.51Z" fill="#352003" stroke="#352003" stroke-width="0.6" stroke-linejoin="round"/>
<path d="M200.07,117.02 L200.02,100.07 L194.90,91.57 L194.95,108.72Z" fill="#352003" stroke="#352003" stroke-width="0.6" stroke-linejoin="round"/>
<path d="M200.02,100.07 L227.50,101.44 L232.33,93.56 L194.90,91.57Z" fill="#352003" stroke="#352003" stroke-width="0.6" stroke-linejoin="round"/>
<path d="M227.50,101.44 L235.47,110.19 L244.26,106.72 L232.33,93.56Z" fill="#B9790F" stroke="#B9790F" stroke-width="0.6" stroke-linejoin="round"/>
<path d="M235.47,110.19 L235.51,135.19 L244.30,138.66 L244.26,106.72Z" fill="#FFEAB5" stroke="#FFEAB5" stroke-width="0.6" stroke-linejoin="round"/>
<path d="M235.51,135.19 L160.50,182.31 L169.17,186.12 L244.30,138.66Z" fill="#FFF4D6" stroke="#FFF4D6" stroke-width="0.6" stroke-linejoin="round"/>
<path d="M160.50,182.31 L160.72,228.45 L169.33,221.31 L169.17,186.12Z" fill="#FFEAB5" stroke="#FFEAB5" stroke-width="0.6" stroke-linejoin="round"/>
<path d="M368.13,196.73 L352.41,196.59 L349.24,203.05 L365.13,203.15Z" fill="#FFEAB5" stroke="#FFEAB5" stroke-width="0.6" stroke-linejoin="round"/>
<path d="M352.41,196.59 L352.87,69.57 L349.67,74.78 L349.24,203.05Z" fill="#352003" stroke="#352003" stroke-width="0.6" stroke-linejoin="round"/>
<path d="M352.87,69.57 L317.96,67.23 L326.85,73.31 L349.67,74.78Z" fill="#FFEAB5" stroke="#FFEAB5" stroke-width="0.6" stroke-linejoin="round"/>
<path d="M317.96,67.23 L317.96,67.84 L326.85,70.49 L326.85,73.31Z" fill="#FFEAB5" stroke="#FFEAB5" stroke-width="0.6" stroke-linejoin="round"/>
<path d="M317.96,67.84 L292.72,87.03 L301.58,89.80 L326.85,70.49Z" fill="#FFF4D6" stroke="#FFF4D6" stroke-width="0.6" stroke-linejoin="round"/>
<path d="M292.72,87.03 L292.68,124.16 L301.56,109.88 L301.58,89.80Z" fill="#FFEAB5" stroke="#FFEAB5" stroke-width="0.6" stroke-linejoin="round"/>
<path d="M292.68,124.16 L317.89,104.62 L326.81,90.38 L301.56,109.88Z" fill="#2C1A02" stroke="#2C1A02" stroke-width="0.6" stroke-linejoin="round"/>
<path d="M317.89,104.62 L317.70,196.27 L326.53,202.91 L326.81,90.38Z" fill="#FFEAB5" stroke="#FFEAB5" stroke-width="0.6" stroke-linejoin="round"/>
<path d="M317.70,196.27 L292.62,196.04 L301.43,202.76 L326.53,202.91Z" fill="#FFEAB5" stroke="#FFEAB5" stroke-width="0.6" stroke-linejoin="round"/>
<path d="M292.62,196.04 L292.59,227.79 L301.41,221.05 L301.43,202.76Z" fill="#FFEAB5" stroke="#FFEAB5" stroke-width="0.6" stroke-linejoin="round"/>
<path d="M292.59,227.79 L368.00,227.41 L365.06,220.92 L301.41,221.05Z" fill="#352003" stroke="#352003" stroke-width="0.6" stroke-linejoin="round"/>
<path d="M368.00,227.41 L368.13,196.73 L365.13,203.15 L365.06,220.92Z" fill="#352003" stroke="#352003" stroke-width="0.6" stroke-linejoin="round"/>
<path d="M146.48,409.04 L173.33,433.59 L177.81,428.05 L155.02,407.10Z" fill="#B9790F" stroke="#B9790F" stroke-width="0.6" stroke-linejoin="round"/>
<path d="M173.33,433.59 L234.40,427.99 L233.71,423.04 L177.81,428.05Z" fill="#352003" stroke="#352003" stroke-width="0.6" stroke-linejoin="round"/>
<path d="M234.40,427.99 L259.17,399.98 L254.91,399.12 L233.71,423.04Z" fill="#2C1A02" stroke="#2C1A02" stroke-width="0.6" stroke-linejoin="round"/>
<path d="M259.17,399.98 L259.15,354.79 L254.88,359.12 L254.91,399.12Z" fill="#352003" stroke="#352003" stroke-width="0.6" stroke-linejoin="round"/>
<path d="M259.15,354.79 L234.24,330.12 L233.57,338.10 L254.88,359.12Z" fill="#B9790F" stroke="#B9790F" stroke-width="0.6" stroke-linejoin="round"/>
<path d="M234.24,330.12 L186.08,332.49 L180.88,340.88 L233.57,338.10Z" fill="#FFEAB5" stroke="#FFEAB5" stroke-width="0.6" stroke-linejoin="round"/>
<path d="M186.08,332.49 L185.98,305.70 L180.71,299.57 L180.88,340.88Z" fill="#352003" stroke="#352003" stroke-width="0.6" stroke-linejoin="round"/>
<path d="M185.98,305.70 L243.92,303.50 L239.43,297.51 L180.71,299.57Z" fill="#352003" stroke="#352003" stroke-width="0.6" stroke-linejoin="round"/>
<path d="M243.92,303.50 L243.87,264.19 L239.40,271.68 L239.43,297.51Z" fill="#352003" stroke="#352003" stroke-width="0.6" stroke-linejoin="round"/>
<path d="M243.87,264.19 L172.60,265.67 L177.17,273.17 L239.40,271.68Z" fill="#FFEAB5" stroke="#FFEAB5" stroke-width="0.6" stroke-linejoin="round"/>
<path d="M172.60,265.67 L145.85,293.57 L154.45,296.96 L177.17,273.17Z" fill="#FFF4D6" stroke="#FFF4D6" stroke-width="0.6" stroke-linejoin="round"/>
<path d="M145.85,293.57 L146.48,409.04 L155.02,407.10 L154.45,296.96Z" fill="#FFEAB5" stroke="#FFEAB5" stroke-width="0.6" stroke-linejoin="round"/>
<path d="M194.45,391.92 L186.27,384.21 L181.07,389.00 L193.41,400.59Z" fill="#B9790F" stroke="#B9790F" stroke-width="0.6" stroke-linejoin="round"/>
<path d="M186.27,384.21 L186.26,380.88 L181.03,379.78 L181.07,389.00Z" fill="#352003" stroke="#352003" stroke-width="0.6" stroke-linejoin="round"/>
<path d="M186.26,380.88 L194.38,372.01 L193.29,366.42 L181.03,379.78Z" fill="#2C1A02" stroke="#2C1A02" stroke-width="0.6" stroke-linejoin="round"/>
<path d="M194.38,372.01 L213.72,370.73 L218.42,364.82 L193.29,366.42Z" fill="#352003" stroke="#352003" stroke-width="0.6" stroke-linejoin="round"/>
<path d="M213.72,370.73 L221.70,378.41 L230.36,376.37 L218.42,364.82Z" fill="#B9790F" stroke="#B9790F" stroke-width="0.6" stroke-linejoin="round"/>
<path d="M221.70,378.41 L221.71,381.69 L230.38,385.40 L230.36,376.37Z" fill="#FFEAB5" stroke="#FFEAB5" stroke-width="0.6" stroke-linejoin="round"/>
<path d="M221.71,381.69 L213.77,390.48 L218.50,398.62 L230.38,385.40Z" fill="#FFF4D6" stroke="#FFF4D6" stroke-width="0.6" stroke-linejoin="round"/>
<path d="M213.77,390.48 L194.45,391.92 L193.41,400.59 L218.50,398.62Z" fill="#FFEAB5" stroke="#FFEAB5" stroke-width="0.6" stroke-linejoin="round"/>
<path d="M278.98,289.29 L278.94,398.38 L287.68,396.50 L287.75,292.47Z" fill="#FFEAB5" stroke="#FFEAB5" stroke-width="0.6" stroke-linejoin="round"/>
<path d="M278.94,398.38 L302.77,421.72 L307.89,416.39 L287.68,396.50Z" fill="#B9790F" stroke="#B9790F" stroke-width="0.6" stroke-linejoin="round"/>
<path d="M302.77,421.72 L357.43,416.70 L357.87,411.92 L307.89,416.39Z" fill="#352003" stroke="#352003" stroke-width="0.6" stroke-linejoin="round"/>
<path d="M357.43,416.70 L379.77,390.27 L376.97,389.36 L357.87,411.92Z" fill="#2C1A02" stroke="#2C1A02" stroke-width="0.6" stroke-linejoin="round"/>
<path d="M379.77,390.27 L380.26,286.03 L377.43,289.44 L376.97,389.36Z" fill="#352003" stroke="#352003" stroke-width="0.6" stroke-linejoin="round"/>
<path d="M380.26,286.03 L358.02,261.82 L358.42,268.82 L377.43,289.44Z" fill="#B9790F" stroke="#B9790F" stroke-width="0.6" stroke-linejoin="round"/>
<path d="M358.02,261.82 L302.99,262.96 L308.13,270.03 L358.42,268.82Z" fill="#FFEAB5" stroke="#FFEAB5" stroke-width="0.6" stroke-linejoin="round"/>
<path d="M302.99,262.96 L278.98,289.29 L287.75,292.47 L308.13,270.03Z" fill="#FFF4D6" stroke="#FFF4D6" stroke-width="0.6" stroke-linejoin="round"/>
<path d="M321.86,382.39 L314.59,375.07 L311.01,379.50 L321.96,390.50Z" fill="#B9790F" stroke="#B9790F" stroke-width="0.6" stroke-linejoin="round"/>
<path d="M314.59,375.07 L314.72,308.74 L311.13,306.93 L311.01,379.50Z" fill="#352003" stroke="#352003" stroke-width="0.6" stroke-linejoin="round"/>
<path d="M314.72,308.74 L322.04,300.54 L322.17,294.59 L311.13,306.93Z" fill="#2C1A02" stroke="#2C1A02" stroke-width="0.6" stroke-linejoin="round"/>
<path d="M322.04,300.54 L339.39,299.89 L344.70,293.80 L322.17,294.59Z" fill="#352003" stroke="#352003" stroke-width="0.6" stroke-linejoin="round"/>
<path d="M339.39,299.89 L346.51,307.43 L355.35,305.14 L344.70,293.80Z" fill="#B9790F" stroke="#B9790F" stroke-width="0.6" stroke-linejoin="round"/>
<path d="M346.51,307.43 L346.29,372.81 L355.09,376.28 L355.35,305.14Z" fill="#FFEAB5" stroke="#FFEAB5" stroke-width="0.6" stroke-linejoin="round"/>
<path d="M346.29,372.81 L339.15,381.10 L344.39,388.74 L355.09,376.28Z" fill="#FFF4D6" stroke="#FFF4D6" stroke-width="0.6" stroke-linejoin="round"/>
<path d="M339.15,381.10 L321.86,382.39 L321.96,390.50 L344.39,388.74Z" fill="#FFEAB5" stroke="#FFEAB5" stroke-width="0.6" stroke-linejoin="round"/>
<path d="M169.33,221.31 L268.78,221.11 L268.78,195.44 L206.42,194.86 L268.78,154.66 L268.77,92.08 L247.49,68.17 L191.38,64.54 L168.72,86.60 L168.82,107.51 L194.95,108.72 L194.90,91.57 L232.33,93.56 L244.26,106.72 L244.30,138.66 L169.17,186.12Z" fill="url(#ifm-g30)" fill-rule="evenodd"/>
<path d="M365.13,203.15 L349.24,203.05 L349.67,74.78 L326.85,73.31 L326.85,70.49 L301.58,89.80 L301.56,109.88 L326.81,90.38 L326.53,202.91 L301.43,202.76 L301.41,221.05 L365.06,220.92Z" fill="url(#ifm-g31)" fill-rule="evenodd"/>
<path d="M155.02,407.10 L177.81,428.05 L233.71,423.04 L254.91,399.12 L254.88,359.12 L233.57,338.10 L180.88,340.88 L180.71,299.57 L239.43,297.51 L239.40,271.68 L177.17,273.17 L154.45,296.96Z M193.41,400.59 L181.07,389.00 L181.03,379.78 L193.29,366.42 L218.42,364.82 L230.36,376.37 L230.38,385.40 L218.50,398.62Z" fill="url(#ifm-g32)" fill-rule="evenodd"/>
<path d="M287.75,292.47 L287.68,396.50 L307.89,416.39 L357.87,411.92 L376.97,389.36 L377.43,289.44 L358.42,268.82 L308.13,270.03Z M321.96,390.50 L311.01,379.50 L311.13,306.93 L322.17,294.59 L344.70,293.80 L355.35,305.14 L355.09,376.28 L344.39,388.74Z" fill="url(#ifm-g33)" fill-rule="evenodd"/><rect x="101.9" y="445.9" width="308.2" height="6.8" rx="3.4" fill="url(#ifm-bar)"/></svg>